<?xml version="1.0" standalone="no"?>
<svg xmlns:xlink="http://www.w3.org/1999/xlink" id="wave" style="transform:rotate(180deg); transition: 0.3s" viewBox="0 0 1440 310" version="1.1" xmlns="http://www.w3.org/2000/svg"><defs><linearGradient id="sw-gradient-0" x1="0" x2="0" y1="1" y2="0"><stop stop-color="rgba(103, 40, 86, 1)" offset="0%"/><stop stop-color="rgba(255, 74, 255, 1)" offset="100%"/></linearGradient></defs><path style="transform:translate(0, 0px); opacity:1" fill="url(#sw-gradient-0)" d="M0,31L48,56.8C96,83,192,134,288,139.5C384,145,480,103,576,77.5C672,52,768,41,864,72.3C960,103,1056,176,1152,206.7C1248,238,1344,227,1440,232.5C1536,238,1632,258,1728,227.3C1824,196,1920,114,2016,77.5C2112,41,2208,52,2304,67.2C2400,83,2496,103,2592,93C2688,83,2784,41,2880,56.8C2976,72,3072,145,3168,170.5C3264,196,3360,176,3456,144.7C3552,114,3648,72,3744,56.8C3840,41,3936,52,4032,62C4128,72,4224,83,4320,98.2C4416,114,4512,134,4608,124C4704,114,4800,72,4896,82.7C4992,93,5088,155,5184,165.3C5280,176,5376,134,5472,118.8C5568,103,5664,114,5760,108.5C5856,103,5952,83,6048,72.3C6144,62,6240,62,6336,98.2C6432,134,6528,207,6624,232.5C6720,258,6816,238,6864,227.3L6912,217L6912,310L6864,310C6816,310,6720,310,6624,310C6528,310,6432,310,6336,310C6240,310,6144,310,6048,310C5952,310,5856,310,5760,310C5664,310,5568,310,5472,310C5376,310,5280,310,5184,310C5088,310,4992,310,4896,310C4800,310,4704,310,4608,310C4512,310,4416,310,4320,310C4224,310,4128,310,4032,310C3936,310,3840,310,3744,310C3648,310,3552,310,3456,310C3360,310,3264,310,3168,310C3072,310,2976,310,2880,310C2784,310,2688,310,2592,310C2496,310,2400,310,2304,310C2208,310,2112,310,2016,310C1920,310,1824,310,1728,310C1632,310,1536,310,1440,310C1344,310,1248,310,1152,310C1056,310,960,310,864,310C768,310,672,310,576,310C480,310,384,310,288,310C192,310,96,310,48,310L0,310Z"/></svg>