<?xml version="1.0" standalone="no"?>
<svg xmlns:xlink="http://www.w3.org/1999/xlink" id="wave" style="transform:rotate(0deg); transition: 0.3s" viewBox="0 0 1440 350" version="1.1" xmlns="http://www.w3.org/2000/svg"><defs><linearGradient id="sw-gradient-0" x1="0" x2="0" y1="1" y2="0"><stop stop-color="rgba(103, 40, 86, 1)" offset="0%"/><stop stop-color="rgba(255, 74, 255, 1)" offset="100%"/></linearGradient></defs><path style="transform:translate(0, 0px); opacity:1" fill="url(#sw-gradient-0)" d="M0,280L48,285.8C96,292,192,303,288,280C384,257,480,198,576,175C672,152,768,163,864,192.5C960,222,1056,268,1152,245C1248,222,1344,128,1440,122.5C1536,117,1632,198,1728,215.8C1824,233,1920,187,2016,157.5C2112,128,2208,117,2304,116.7C2400,117,2496,128,2592,110.8C2688,93,2784,47,2880,23.3C2976,0,3072,0,3168,46.7C3264,93,3360,187,3456,221.7C3552,257,3648,233,3744,204.2C3840,175,3936,140,4032,105C4128,70,4224,35,4320,64.2C4416,93,4512,187,4608,215.8C4704,245,4800,210,4896,163.3C4992,117,5088,58,5184,70C5280,82,5376,163,5472,204.2C5568,245,5664,245,5760,245C5856,245,5952,245,6048,245C6144,245,6240,245,6336,204.2C6432,163,6528,82,6624,40.8C6720,0,6816,0,6864,0L6912,0L6912,350L6864,350C6816,350,6720,350,6624,350C6528,350,6432,350,6336,350C6240,350,6144,350,6048,350C5952,350,5856,350,5760,350C5664,350,5568,350,5472,350C5376,350,5280,350,5184,350C5088,350,4992,350,4896,350C4800,350,4704,350,4608,350C4512,350,4416,350,4320,350C4224,350,4128,350,4032,350C3936,350,3840,350,3744,350C3648,350,3552,350,3456,350C3360,350,3264,350,3168,350C3072,350,2976,350,2880,350C2784,350,2688,350,2592,350C2496,350,2400,350,2304,350C2208,350,2112,350,2016,350C1920,350,1824,350,1728,350C1632,350,1536,350,1440,350C1344,350,1248,350,1152,350C1056,350,960,350,864,350C768,350,672,350,576,350C480,350,384,350,288,350C192,350,96,350,48,350L0,350Z"/></svg>